<?xml version="1.0" encoding="UTF-8" standalone="no"?>
<!DOCTYPE svg PUBLIC "-//W3C//DTD SVG 1.1//EN"
 "http://www.w3.org/Graphics/SVG/1.1/DTD/svg11.dtd">
<!-- Generated by graphviz version 2.40.1 (20161225.0304)
 -->
<!-- Title: model_graph Pages: 1 -->
<svg width="216pt" height="290pt"
 viewBox="0.00 0.00 216.00 290.00" xmlns="http://www.w3.org/2000/svg" xmlns:xlink="http://www.w3.org/1999/xlink">
<g id="graph0" class="graph" transform="scale(1 1) rotate(0) translate(4 286)">
<title>model_graph</title>
<polygon fill="#ffffff" stroke="transparent" points="-4,4 -4,-286 212,-286 212,4 -4,4"/>
<g id="clust1" class="cluster">
<title>cluster_subscriptions</title>
<path fill="none" stroke="#698b22" d="M20,-8C20,-8 188,-8 188,-8 194,-8 200,-14 200,-20 200,-20 200,-262 200,-262 200,-268 194,-274 188,-274 188,-274 20,-274 20,-274 14,-274 8,-268 8,-262 8,-262 8,-20 8,-20 8,-14 14,-8 20,-8"/>
<text text-anchor="start" x="20" y="-258.5" font-family="Roboto" font-size="8.00" fill="#000000"> &#160;&#160;&#160;&#160;&#160;&#160;&#160;&#160;&#160;</text>
<text text-anchor="start" x="43" y="-258.5" font-family="Roboto" font-size="10.00" fill="#000000"> &#160;&#160;&#160;&#160;&#160;&#160;&#160;&#160;&#160;</text>
<text text-anchor="start" x="71" y="-258.5" font-family="Roboto" font-weight="bold" font-size="10.00" fill="#000000">subscriptions</text>
<text text-anchor="start" x="137" y="-258.5" font-family="Roboto" font-size="10.00" fill="#000000"> &#160;&#160;&#160;&#160;&#160;&#160;&#160;&#160;&#160;</text>
<text text-anchor="start" x="165" y="-258.5" font-family="Roboto" font-size="8.00" fill="#000000"> &#160;&#160;&#160;&#160;&#160;&#160;&#160;&#160;&#160;</text>
</g>
<!-- subscriptions_models_Subscription -->
<g id="node1" class="node">
<title>subscriptions_models_Subscription</title>
<polygon fill="#ffffff" stroke="transparent" points="32.5,-20 32.5,-82 169.5,-82 169.5,-20 32.5,-20"/>
<polygon fill="#1b563f" stroke="transparent" points="34,-60 34,-81 169,-81 169,-60 34,-60"/>
<text text-anchor="start" x="47" y="-69" font-family="Roboto" font-size="8.00" fill="#000000"> &#160;&#160;&#160;&#160;&#160;</text>
<text text-anchor="start" x="61" y="-69" font-family="Roboto" font-weight="bold" font-size="10.00" fill="#ffffff"> &#160;&#160;&#160;&#160;&#160;Subscription &#160;&#160;&#160;&#160;&#160;</text>
<text text-anchor="start" x="36" y="-52.6" font-family="Roboto" font-size="8.00" fill="#000000"> &#160;&#160;&#160;&#160;&#160;</text>
<text text-anchor="start" x="50" y="-52.6" font-family="Roboto" font-weight="bold" font-size="8.00" fill="#000000">id</text>
<text text-anchor="start" x="58" y="-52.6" font-family="Roboto" font-size="8.00" fill="#000000"> &#160;&#160;&#160;&#160;&#160;</text>
<text text-anchor="start" x="91" y="-52.6" font-family="Roboto" font-size="8.00" fill="#000000"> &#160;&#160;&#160;&#160;&#160;</text>
<text text-anchor="start" x="105" y="-52.6" font-family="Roboto" font-weight="bold" font-size="8.00" fill="#000000">UUIDField</text>
<text text-anchor="start" x="144" y="-52.6" font-family="Roboto" font-size="8.00" fill="#000000"> &#160;&#160;&#160;&#160;&#160;</text>
<text text-anchor="start" x="36" y="-39.6" font-family="Roboto" font-size="8.00" fill="#000000"> &#160;&#160;&#160;&#160;&#160;</text>
<text text-anchor="start" x="50" y="-39.6" font-family="Roboto" font-size="8.00" fill="#000000">name</text>
<text text-anchor="start" x="71" y="-39.6" font-family="Roboto" font-size="8.00" fill="#000000"> &#160;&#160;&#160;&#160;&#160;</text>
<text text-anchor="start" x="91" y="-39.6" font-family="Roboto" font-size="8.00" fill="#000000"> &#160;&#160;&#160;&#160;&#160;</text>
<text text-anchor="start" x="105" y="-39.6" font-family="Roboto" font-size="8.00" fill="#000000">TextField</text>
<text text-anchor="start" x="138" y="-39.6" font-family="Roboto" font-size="8.00" fill="#000000"> &#160;&#160;&#160;&#160;&#160;</text>
<text text-anchor="start" x="36" y="-26.6" font-family="Roboto" font-size="8.00" fill="#000000"> &#160;&#160;&#160;&#160;&#160;</text>
<text text-anchor="start" x="50" y="-26.6" font-family="Roboto" font-size="8.00" fill="#000000">period</text>
<text text-anchor="start" x="73" y="-26.6" font-family="Roboto" font-size="8.00" fill="#000000"> &#160;&#160;&#160;&#160;&#160;</text>
<text text-anchor="start" x="91" y="-26.6" font-family="Roboto" font-size="8.00" fill="#000000"> &#160;&#160;&#160;&#160;&#160;</text>
<text text-anchor="start" x="105" y="-26.6" font-family="Roboto" font-size="8.00" fill="#000000">DurationField</text>
<text text-anchor="start" x="153" y="-26.6" font-family="Roboto" font-size="8.00" fill="#000000"> &#160;&#160;&#160;&#160;&#160;</text>
<polygon fill="none" stroke="#000000" points="32.5,-20 32.5,-82 169.5,-82 169.5,-20 32.5,-20"/>
</g>
<!-- subscriptions_models_SubscriptionFilm -->
<g id="node2" class="node">
<title>subscriptions_models_SubscriptionFilm</title>
<polygon fill="#ffffff" stroke="transparent" points="25.5,-173 25.5,-235 176.5,-235 176.5,-173 25.5,-173"/>
<polygon fill="#1b563f" stroke="transparent" points="27,-213 27,-234 176,-234 176,-213 27,-213"/>
<text text-anchor="start" x="36.5" y="-222" font-family="Roboto" font-size="8.00" fill="#000000"> &#160;&#160;&#160;&#160;&#160;</text>
<text text-anchor="start" x="50.5" y="-222" font-family="Roboto" font-weight="bold" font-size="10.00" fill="#ffffff"> &#160;&#160;&#160;&#160;&#160;SubscriptionFilm &#160;&#160;&#160;&#160;&#160;</text>
<text text-anchor="start" x="29" y="-205.6" font-family="Roboto" font-size="8.00" fill="#000000"> &#160;&#160;&#160;&#160;&#160;</text>
<text text-anchor="start" x="43" y="-205.6" font-family="Roboto" font-weight="bold" font-size="8.00" fill="#000000">id</text>
<text text-anchor="start" x="51" y="-205.6" font-family="Roboto" font-size="8.00" fill="#000000"> &#160;&#160;&#160;&#160;&#160;</text>
<text text-anchor="start" x="87" y="-205.6" font-family="Roboto" font-size="8.00" fill="#000000"> &#160;&#160;&#160;&#160;&#160;</text>
<text text-anchor="start" x="101" y="-205.6" font-family="Roboto" font-weight="bold" font-size="8.00" fill="#000000">UUIDField</text>
<text text-anchor="start" x="140" y="-205.6" font-family="Roboto" font-size="8.00" fill="#000000"> &#160;&#160;&#160;&#160;&#160;</text>
<text text-anchor="start" x="29" y="-192.6" font-family="Roboto" font-size="8.00" fill="#000000"> &#160;&#160;&#160;&#160;&#160;</text>
<text text-anchor="start" x="43" y="-192.6" font-family="Roboto" font-weight="bold" font-size="8.00" fill="#000000">sub_id</text>
<text text-anchor="start" x="69" y="-192.6" font-family="Roboto" font-size="8.00" fill="#000000"> &#160;&#160;&#160;&#160;&#160;</text>
<text text-anchor="start" x="87" y="-192.6" font-family="Roboto" font-size="8.00" fill="#000000"> &#160;&#160;&#160;&#160;&#160;</text>
<text text-anchor="start" x="101" y="-192.6" font-family="Roboto" font-weight="bold" font-size="8.00" fill="#000000">ForeignKey (id)</text>
<text text-anchor="start" x="160" y="-192.6" font-family="Roboto" font-size="8.00" fill="#000000"> &#160;&#160;&#160;&#160;&#160;</text>
<text text-anchor="start" x="29" y="-179.6" font-family="Roboto" font-size="8.00" fill="#000000"> &#160;&#160;&#160;&#160;&#160;</text>
<text text-anchor="start" x="43" y="-179.6" font-family="Roboto" font-size="8.00" fill="#000000">film_id</text>
<text text-anchor="start" x="67" y="-179.6" font-family="Roboto" font-size="8.00" fill="#000000"> &#160;&#160;&#160;&#160;&#160;</text>
<text text-anchor="start" x="87" y="-179.6" font-family="Roboto" font-size="8.00" fill="#000000"> &#160;&#160;&#160;&#160;&#160;</text>
<text text-anchor="start" x="101" y="-179.6" font-family="Roboto" font-size="8.00" fill="#000000">TextField</text>
<text text-anchor="start" x="134" y="-179.6" font-family="Roboto" font-size="8.00" fill="#000000"> &#160;&#160;&#160;&#160;&#160;</text>
<polygon fill="none" stroke="#000000" points="25.5,-173 25.5,-235 176.5,-235 176.5,-173 25.5,-173"/>
</g>
<!-- subscriptions_models_SubscriptionFilm&#45;&gt;subscriptions_models_Subscription -->
<g id="edge1" class="edge">
<title>subscriptions_models_SubscriptionFilm&#45;&gt;subscriptions_models_Subscription</title>
<path fill="none" stroke="#000000" d="M101,-160.7971C101,-137.2195 101,-108.3991 101,-86.2026"/>
<ellipse fill="#000000" stroke="#000000" cx="101" cy="-164.8987" rx="4" ry="4"/>
<text text-anchor="middle" x="145.5" y="-125.6" font-family="Roboto" font-size="8.00" fill="#000000"> sub_id (subscriptionfilm)</text>
</g>
</g>
</svg>
